<svg xmlns="http://www.w3.org/2000/svg" viewBox="0 0 1638.71 342.45"><defs><style>.cls-1{fill:#fff;}</style></defs><g id="Слой_2" data-name="Слой 2"><g id="Слой_1-2" data-name="Слой 1"><path class="cls-1" d="M1638.71,342.36q-105.48,0-211,.09H26.35c-6,0-12,0-18-.13a8.43,8.43,0,0,1-8.24-8.5C0,321-.16,308.15.25,295.33c.11-3.4,1.9-6.92,3.6-10,.53-1,3.29-1,5-1q31.24-.1,62.49-.08,453,0,905.93,0c6.66,0,13.41.2,19.94-.84,6-1,11.84-3.47,17.75-5.3a1.78,1.78,0,0,1,.47-.17c8.41.2,15-4.75,21.61-8.64a113.11,113.11,0,0,0,19.56-15A154.83,154.83,0,0,0,1073,236c3.65-4.68,6.24-10.18,9.43-15.24,6.95-11,14.07-22,20.93-33.07,4.26-6.9,8-14.14,12.26-21,5.37-8.59,11.19-16.9,16.61-25.46,3.12-4.93,5.6-10.28,8.78-15.17,5.46-8.42,11.37-16.54,16.8-25,3-4.67,5.2-9.87,8.16-14.58,4.79-7.62,9.37-15.47,15-22.43,8-9.78,15.78-19.79,26.44-27,6.08-4.13,11.69-8.94,17.67-13.22a44,44,0,0,1,8.42-4.59c6.91-2.88,13.94-5.45,20.87-8.26a38.1,38.1,0,0,0,6-3.11c4.81-3,10.64-2.25,15.54-4C1295.28-2.93,1315,1.48,1334.58.6c10.47,5.38,23.33,2.25,33.4,9.75,3.6,2.67,8.82,3.05,13.09,5,9.11,4.07,17.82,8.83,25.39,15.51,3.84,3.39,8.54,5.86,12.14,9.45,8.73,8.68,18.2,16.63,24.67,27.49,4.24,7.11,9.92,13.34,14.72,20.14,3.59,5.07,6.68,10.49,10.23,15.59,1.94,2.78,4.59,5,6.54,7.82,6.14,8.71,12.14,17.52,18.13,26.33,6.37,9.35,12.57,18.81,19,28.09,4.86,7,10.15,13.65,15,20.63,3.64,5.26,6.75,10.88,10.3,16.2,2.85,4.27,6,8.33,9,12.5,5.55,7.72,11,15.54,16.65,23.13a120.55,120.55,0,0,0,10.6,12.49c4.6,4.63,9.21,9.52,14.64,13A190.25,190.25,0,0,0,1613,276.79c6.18,2.77,12.88,4.4,19.42,6.27,2,.57,4.22.23,6.34.3Z"/></g></g></svg>